<?xml version="1.0" encoding="UTF-8" standalone="no"?>
<svg width="753px" height="404px" viewBox="0 0 753 404" version="1.1" xmlns="http://www.w3.org/2000/svg" xmlns:xlink="http://www.w3.org/1999/xlink" xmlns:sketch="http://www.bohemiancoding.com/sketch/ns">
    <title>Logo</title>
    <description>Created with Sketch (http://www.bohemiancoding.com/sketch)</description>
    <defs></defs>
    <g id="Page-1" stroke="none" stroke-width="1" fill="none" fill-rule="evenodd" sketch:type="MSPage">
        <g id="Logo" sketch:type="MSArtboardGroup" fill="#FFFFFF">
            <path d="M416.056239,307.481481 C425.785877,307.481481 429.06171,299.187301 429.06171,294.100538 C429.06171,287.787606 424.757514,280.814815 415.961696,280.814815 C407.071334,280.814815 403.143652,288.352245 403.143652,294.290978 C403.143652,299.187301 406.699797,307.481481 416.056239,307.481481 L416.056239,307.481481 Z M445.35306,320.492284 L435.429297,320.492284 C429.812637,320.492284 429.812637,314.795845 429.812637,314.795845 L429.626743,314.795845 C426.999327,319.923481 420.544483,322.296296 414.456448,322.296296 C397.976595,322.296296 388.333333,309.195329 388.333333,294.10187 C388.336653,276.827441 400.599031,266 414.456448,266 C422.977705,266 427.752863,270.180193 429.626743,273.407895 L429.812637,273.407895 C429.812637,273.407895 429.812637,267.804012 435.334691,267.804012 L445.35306,267.804012 L445.35306,320.492284 Z M480.337228,306.740741 C488.37845,306.740741 493.486596,300.237368 493.486596,293.359797 C493.486596,286.574105 488.37845,280.074074 480.622318,280.074074 C472.297684,280.074074 467.565186,286.762875 467.56854,293.266248 C467.56854,300.521358 472.485508,306.740741 480.337228,306.740741 Z M463.657567,250.444444 L468.329904,250.444444 L468.329904,272.126197 C473.86521,266.157003 481.272776,266.157003 483.432692,266.157003 C494.312087,266.157003 509.03743,274.014121 509.03743,293.895214 C509.03743,312.82815 496.003107,322.296296 482.775905,322.296296 C475.45979,322.296296 469.829708,318.698334 467.861008,314.912418 L467.674779,314.912418 L467.674779,320.497315 L452.75822,320.497315 L452.75822,261.443067 C452.75822,250.444444 463.657567,250.444444 463.657567,250.444444 Z M540.319043,306.740741 C548.359224,306.740741 553.468386,300.237368 553.468386,293.359797 C553.468386,286.574105 548.359224,280.074074 540.604096,280.074074 C532.278861,280.074074 527.550329,286.762875 527.550329,293.266248 C527.550329,300.521358 532.468338,306.740741 540.319043,306.740741 Z M523.642361,250.444444 L528.312897,250.444444 L528.312897,272.126197 C533.843052,266.157003 541.255387,266.157003 543.410251,266.157003 C554.29265,266.157003 569.019221,274.014121 569.019221,293.895214 C569.019221,312.82815 555.980295,322.296296 542.755146,322.296296 C535.44091,322.296296 529.812657,318.698334 527.840689,314.912418 L527.652804,314.912418 L527.652804,320.497315 L512.74001,320.497315 L512.74001,261.443067 C512.74001,250.444444 523.642361,250.444444 523.642361,250.444444 Z M590.494183,320.074074 L574.202833,320.074074 L574.202833,278.492436 C574.202833,267.481481 585.606604,267.481481 585.606604,267.481481 L590.494183,267.481481 L590.494183,320.074074 Z M589.013151,256.37037 C589.013151,260.86779 585.366478,264.518519 580.866646,264.518519 C576.370134,264.518519 572.721801,260.86779 572.721801,256.37037 C572.721801,251.869631 576.370134,248.222222 580.866646,248.222222 C585.366478,248.222222 589.013151,251.869631 589.013151,256.37037 Z M359.025563,285.259259 L352.788569,285.259259 L352.788569,266.740741 L359.211963,266.740741 C366.001561,266.740741 370.560951,269.706317 370.560951,275.729895 C370.560951,278.96956 369.353471,285.259259 359.025563,285.259259 Z M381.469386,304.453111 C377.542577,304.453111 374.665825,301.308902 374.424278,301.038684 L371.849459,297.826086 L371.849459,297.829422 L370.673597,296.363237 C383.921754,294.196485 388.0834,282.435309 388.0834,274.437176 C388.0834,267.286395 385.245228,259.947127 379.471594,255.43181 C374.930855,251.948994 370.200568,250.444444 357.900146,250.444444 L335.756702,250.444444 L335.756702,320.074074 L352.881346,320.074074 L352.8847,299.233891 L359.564133,307.56396 L362.195984,310.844946 C362.954172,311.789042 369.932183,320.074074 381.469386,320.074074 L388.333333,320.074074 L388.333333,304.453111 L381.469386,304.453111 Z M618.671702,304.449775 C618.419744,304.443103 616.036224,304.316334 613.924818,303.163735 C612.317327,302.279687 610.672882,300.810166 610.672882,296.578411 L610.672882,290.500163 L610.669523,290.500163 L610.669523,279.709772 L620.855336,279.709772 L620.855336,267.851852 L610.669523,267.851852 L610.669523,250.444444 L605.952873,250.444444 C605.952873,250.444444 594.937279,250.444444 594.937279,261.378285 L594.937279,289.567743 L594.937279,292.943806 L594.937279,296.578411 C594.937279,313.815681 609.088908,320.074074 618.599474,320.074074 L620.855336,320.074074 L620.855336,304.449775 L618.671702,304.449775 Z M148.837495,266.062071 L132.855336,266.062071 L132.855336,261.376617 C132.855336,250.444444 143.612937,250.444444 143.612937,250.444444 L180.988872,250.444444 L180.988872,266.062071 L166.330903,266.062071 L166.330903,320.074074 L159.596736,320.074074 C148.837495,320.074074 148.837495,309.136898 148.837495,309.136898 L148.837495,266.062071 Z M200.566102,307.481481 C210.299058,307.481481 213.571573,299.187301 213.571573,294.100538 C213.571573,287.787606 209.267378,280.814815 200.474876,280.814815 C191.584515,280.814815 187.656833,288.352245 187.653515,294.290978 C187.656833,299.187301 191.20966,307.481481 200.566102,307.481481 Z M229.862924,320.492284 L219.939161,320.492284 C214.319181,320.492284 214.319181,314.795845 214.319181,314.795845 L214.133287,314.795845 C211.509191,319.923481 205.049367,322.296296 198.964652,322.296296 C182.486458,322.296296 172.843197,309.195329 172.843197,294.10187 C172.843197,276.827441 185.108895,266 198.964652,266 C207.487569,266 212.262726,270.180193 214.133287,273.407895 L214.319181,273.407895 C214.319181,273.407895 214.319181,267.804012 219.844554,267.804012 L229.862924,267.804012 L229.862924,320.492284 Z M260.152111,282.614753 C260.056097,281.473782 259.865755,278.628087 255.209955,278.628087 C251.884865,278.628087 250.744497,280.718184 250.744497,282.138507 C250.744497,284.987568 254.638929,286.601419 258.821401,287.838312 C267.752317,290.305366 277.255943,292.960899 277.255943,304.353777 C277.255943,315.46057 267.46933,322.296296 255.780981,322.296296 C247.800091,322.296296 235.731058,318.688271 234.306019,304.826657 L249.983129,304.826657 C250.648484,309.668209 255.305968,309.668209 255.971323,309.668209 C258.631059,309.668209 261.481136,308.15028 261.481136,305.585621 C261.481136,301.504716 257.583335,301.030153 247.513736,297.13941 C240.673213,294.956756 234.973059,290.493845 234.96969,283.373717 C234.96969,272.931649 244.473316,266 255.400297,266 C262.336833,266 274.311537,268.754821 275.640563,282.614753 L260.152111,282.614753 Z M279.477491,306.189515 L279.477491,320.074074 L295.080868,320.074074 L295.080868,306.189515 L295.077535,306.189515 L295.077535,294.950428 L295.267475,294.950428 C295.267475,294.950428 297.43512,298.239754 303.539847,307.600656 C311.562299,319.912277 327.472245,320.074074 328.143698,320.074074 L332.054122,320.074074 L332.054122,306.623199 L328.143698,306.623199 C328.048728,306.623199 318.741685,306.349644 314.774612,300.259721 C312.050477,296.078006 310.397669,293.545959 309.399652,292.021393 C309.071423,291.512649 308.811506,291.118997 308.613236,290.812082 L328.256995,267.851852 L309.739544,267.851852 L295.267475,286.763809 L295.077535,286.763809 L295.080868,261.378285 C295.080868,250.444444 284.157671,250.444444 284.157671,250.444444 L279.477491,250.444444 L279.477491,306.189515 Z M447.60386,146.740741 C445.189334,146.740741 442.884188,144.751978 442.459728,142.295467 C442.032002,139.840614 443.644951,137.851852 446.064375,137.851852 C448.478901,137.851852 450.782415,139.840614 451.208508,142.295467 C451.636233,144.751978 450.021651,146.740741 447.60386,146.740741 Z M466.601564,150.412958 C462.645265,135.362383 453.424403,132.580292 445.289617,130.124912 C439.986916,128.523357 434.977705,127.014426 433.054274,122.05651 C428.995171,111.598407 415.983824,95.4211869 399.863482,86.0543641 C392.093484,81.5376761 388.591513,82.054687 387.193709,82.7603142 C386.845502,82.935458 386.566936,83.1594399 386.338114,83.3952104 C386.875348,83.6158241 387.407608,83.8431742 387.934893,84.0806287 C390.57132,85.2780057 393.080071,86.6791558 395.489334,88.2183999 C397.895281,89.7643804 400.20174,91.4585594 402.38384,93.3026211 L403.211247,94.0065642 L403.990568,94.6936667 L405.542578,96.1284982 C406.555695,97.0884207 407.590368,98.0230821 408.593537,98.9998453 L411.559932,101.967185 C412.536571,102.972577 413.489996,104.003231 414.438446,105.0322 C415.381922,106.064538 416.293894,107.14403 417.222447,108.196577 C418.117837,109.279437 418.981723,110.394294 419.860532,111.492311 C420.278381,112.05816 420.701204,112.62064 421.11242,113.196594 C421.528611,113.765811 421.933195,114.343449 422.321197,114.936243 C422.705883,115.529037 423.118758,116.099939 423.485204,116.706205 L424.574596,118.531742 C424.912855,119.153166 425.254429,119.774589 425.582739,120.399381 C425.886177,121.04775 426.20288,121.679278 426.484762,122.331014 C427.030287,123.632804 427.540991,124.988484 427.733334,126.389634 C427.469691,125.737897 427.094954,125.148471 426.73514,124.564097 L426.174692,123.698483 L425.576107,122.859814 C425.179814,122.297333 424.7487,121.761797 424.339142,121.217841 L423.042484,119.629759 C421.268284,117.548243 419.38299,115.567771 417.486089,113.614244 C415.551052,111.689347 413.589484,109.794763 411.594753,107.933861 C410.576661,107.022777 409.573492,106.094852 408.57364,105.173663 L405.49615,102.470723 C404.478058,101.559639 403.416855,100.690656 402.38384,99.7997808 L400.843437,98.4777822 L400.050851,97.8193091 L399.284794,97.2012537 C397.193892,95.5491765 395.041639,93.9813031 392.801505,92.5633123 C390.566346,91.1419534 388.251596,89.8553204 385.875496,88.784249 C383.511002,87.7249661 381.037072,86.8559836 378.69745,86.4939076 C377.554998,86.3170797 376.397623,86.3170797 375.706183,86.5275891 C375.36295,86.6286335 375.213718,86.751571 375.193821,86.7903047 C375.167291,86.820618 375.125837,86.8728243 375.095991,87.1658533 C375.042931,87.7502272 375.333104,88.8953979 375.78909,89.9311038 C376.090869,90.6283106 376.286529,91.0392248 376.601573,91.6353872 C376.886772,92.1911318 377.211765,92.7401402 377.545049,93.2891485 C378.891451,95.470025 380.534658,97.5431208 382.298909,99.5269607 C384.069792,101.505748 385.976641,103.400332 387.959765,105.222501 C391.932645,108.866838 396.20233,112.245092 400.599692,115.439781 C402.80003,117.0346 405.040164,118.583949 407.306828,120.089511 C409.56686,121.586653 411.8899,123.066955 414.171487,124.426003 L417.13125,126.185861 L414.680533,128.577247 C413.489996,129.740943 411.977781,130.869273 410.082538,131.428385 C409.145695,131.704574 408.152475,131.819091 407.210657,131.787093 C406.262206,131.753412 405.3635,131.58332 404.536093,131.345866 C402.881279,130.862536 401.47021,130.151857 400.156971,129.415916 C398.848706,128.674923 397.633297,127.895197 396.441101,127.11547 C394.068317,125.561069 391.790046,124.026878 389.45374,122.642568 C387.122409,121.251523 384.744651,120.005307 382.295592,118.959497 C377.40245,116.86114 372.207528,115.616609 366.908144,115.274742 C364.250162,115.097914 361.605444,115.119807 358.990573,115.402732 C356.367411,115.682288 353.770779,116.199299 351.230523,116.948712 C343.613073,119.173375 336.574311,123.388613 330.75759,128.929219 C330.726085,128.961216 330.689607,128.994898 330.658102,129.026895 C330.492289,129.185198 330.329792,129.350237 330.168954,129.510224 L330.168954,129.496752 C329.164127,130.486988 328.182514,131.517641 327.253961,132.592081 L326.124774,133.888818 L324.506439,133.343178 C323.645869,133.050149 322.762086,132.901951 321.876645,132.901951 C317.27865,132.901951 313.541224,136.697855 313.541224,141.364425 C313.541224,143.749075 314.549367,146.039416 316.310301,147.647707 L317.567164,148.79793 L317.028272,150.429799 C315.386723,155.380978 314.556,160.475304 314.556,165.576365 C314.556,174.000106 316.666799,182.268913 320.676158,189.680525 L320.679475,189.673788 C320.709321,189.729363 320.734193,189.784937 320.767355,189.840512 C320.787253,189.88093 320.812125,189.919663 320.832023,189.963449 C321.130486,190.495617 321.432266,191.029468 321.74731,191.5549 C321.775499,191.603738 321.808661,191.660996 321.840166,191.709835 C322.515025,192.834796 323.236311,193.936181 323.999051,195.005569 C327.101413,199.377426 330.905163,203.232273 335.201379,206.389913 C339.502568,209.537448 344.297881,211.984408 349.363469,213.543861 C354.432373,215.104999 359.726782,215.819046 365.057671,215.586644 L366.097319,215.549594 L367.060692,215.467075 C367.705705,215.401396 368.335794,215.381187 368.999046,215.273406 C369.655666,215.180782 370.312286,215.108367 370.963931,215.000586 L372.920524,214.63851 C375.507207,214.086133 378.055754,213.323248 380.524709,212.356589 C385.475886,210.421587 390.113676,207.656337 394.307088,204.294924 C396.409597,202.61927 398.379455,200.77184 400.243194,198.826734 C401.16843,197.846602 402.060504,196.837842 402.914441,195.802136 C403.131656,195.537736 403.333948,195.268284 403.544531,195.0022 L402.559601,194.532344 C402.025684,194.291521 401.491766,194.049014 400.95619,193.825032 C400.418955,193.597682 399.883379,193.370332 399.337855,193.169927 C398.798962,192.949313 398.250121,192.765749 397.704596,192.575449 C397.157413,192.383464 396.605256,192.213373 396.049782,192.044965 L395.20911,191.807511 L394.363464,191.591949 C393.791409,191.465644 393.219354,191.317445 392.63735,191.229873 C392.058663,191.110304 391.466711,191.037889 390.871442,190.960421 C390.281147,190.896427 389.679246,190.818959 389.072371,190.795382 C388.465495,190.733071 387.853645,190.746544 387.230188,190.716231 C386.613363,190.726335 385.983274,190.712862 385.353185,190.749912 C384.718121,190.778541 384.078082,190.805487 383.436386,190.871165 C382.786399,190.903163 382.146361,191.005891 381.479792,191.064834 C380.813224,191.113672 380.171528,191.261871 379.483404,191.32755 L379.347437,191.347759 C378.758801,191.534691 378.127053,191.647524 377.432297,191.634051 C378.06736,190.054389 378.9014,188.969845 379.838243,187.966137 C380.79001,186.992742 381.697007,185.982297 382.531047,184.924698 C383.365086,183.865415 384.152698,182.779187 384.857404,181.647489 C385.558793,180.512423 386.192198,179.355464 386.736065,178.164823 C387.817166,175.78691 388.543427,173.292795 388.797121,170.766683 C389.059105,168.247308 388.845207,165.700987 388.200194,163.24729 C387.55684,160.788541 386.502269,158.422417 385.177423,156.189334 L384.932019,155.771683 L384.867352,155.667271 L384.837506,155.616748 C384.890566,155.709372 384.840822,155.626853 384.847455,155.636957 L384.832532,155.610012 L384.686616,155.38603 C384.494273,155.10479 384.291981,154.771343 384.111245,154.5221 L383.585618,153.79458 L383.001956,153.051903 C382.207712,152.07514 381.357091,151.157319 380.463359,150.301809 C378.67921,148.587421 376.689454,147.130697 374.527252,145.980474 C372.366709,144.82183 370.013822,144.013475 367.573054,143.582351 C362.696494,142.716737 357.489965,143.37521 352.908551,145.480304 C350.617015,146.522746 348.478027,147.913791 346.602682,149.611338 C344.722362,151.295413 343.112318,153.287673 341.835558,155.498863 C340.552165,157.705001 339.635219,160.140173 339.049899,162.684809 L338.940462,163.159718 C338.913932,163.260763 338.872479,163.501586 338.845949,163.63968 C338.797863,163.919236 338.743145,164.240894 338.70335,164.560868 C338.618785,165.202501 338.562409,165.855922 338.527588,166.514395 C338.44634,167.829657 338.452972,169.16176 338.549144,170.490495 C338.733196,173.151333 339.313542,175.759964 340.091205,178.331546 C340.865551,180.918285 341.923439,183.441028 343.19025,186.09513 C340.722952,184.5121 338.761384,182.167868 337.333734,179.532291 C335.896135,176.891662 335.081993,173.937796 334.611084,170.962036 C334.160073,167.967751 334.027423,164.931365 334.531494,161.80067 C335.000745,158.764284 335.957486,155.77842 337.368555,153.004749 C338.781282,150.232762 340.676525,147.70665 342.901735,145.539246 C345.135237,143.378578 347.705339,141.585039 350.4711,140.214202 C356.007596,137.474213 362.338337,136.371144 368.524821,137.230022 C371.613918,137.654409 374.661561,138.562125 377.503596,139.949803 C380.337341,141.3459 382.937289,143.259009 385.112756,145.552719 C386.202147,146.696205 387.180444,147.940736 388.057595,149.239158 L388.697633,150.222658 L389.322748,151.275204 C389.528356,151.620439 389.669297,151.906732 389.845059,152.226706 L389.971077,152.459109 L390.032428,152.571942 L390.065591,152.63762 L390.130258,152.762242 L390.390584,153.275885 C391.765174,156.012506 392.852907,158.956268 393.441544,162.041493 C394.03847,165.119981 394.1363,168.339932 393.62228,171.445365 C393.119866,174.552483 392.0255,177.52319 390.516602,180.170556 C389.770443,181.49929 388.919823,182.75561 387.989612,183.931094 C387.318069,184.783236 386.600098,185.591592 385.857256,186.36795 C386.072813,186.295535 386.291686,186.219751 386.508901,186.137232 C387.21029,185.946931 387.911679,185.719581 388.636282,185.584855 C389.352595,185.426552 390.087146,185.312035 390.823356,185.219411 L390.929476,185.209307 C392.184681,184.02877 393.784777,182.726981 395.341761,181.457189 C396.505768,180.509055 397.605108,179.611443 398.33137,178.947917 C398.2866,178.831716 398.235198,178.713831 398.192087,178.602682 C398.006376,178.030097 397.837247,177.536663 397.707913,177.102172 C397.611741,176.664312 397.548732,176.293816 397.490697,175.987314 C397.39121,175.379363 397.348098,175.049285 397.348098,175.049285 C397.348098,175.049285 397.575262,175.290108 397.979846,175.756596 C398.178822,175.983946 398.405985,176.28708 398.699474,176.618842 C398.991305,176.921976 399.324589,177.273947 399.697669,177.668021 C400.453776,178.42417 401.388962,179.335255 402.504883,180.269916 C402.761893,180.519159 403.071964,180.743141 403.375402,180.977227 C403.677181,181.212998 403.983935,181.460557 404.300638,181.7098 C404.623974,181.953991 404.968865,182.184709 405.312098,182.427216 C405.658647,182.668038 405.986957,182.940858 406.373301,183.161472 C407.827481,184.144972 409.478979,185.06616 411.261469,185.946931 C413.078779,186.765392 415.012159,187.585536 417.096429,188.200223 C419.17904,188.786281 421.372747,189.342026 423.652676,189.552535 C424.221414,189.646843 424.796785,189.633371 425.375473,189.680525 L426.241017,189.729363 L426.458232,189.739467 L426.484762,189.739467 L426.478129,189.739467 L426.493053,189.739467 L426.607464,189.739467 L427.075056,189.732731 C427.224288,189.729363 427.401708,189.732731 427.526068,189.722627 L427.874275,189.683893 L428.222482,189.65358 L428.593904,189.591269 L428.963667,189.532326 L429.31519,189.44307 C429.557277,189.394232 429.777809,189.318449 429.993365,189.239297 C430.873833,188.929427 431.543717,188.439362 431.978147,187.900458 C432.178781,187.620902 432.331329,187.331241 432.425842,187.026423 C432.507091,186.713185 432.540253,186.388159 432.526988,186.046292 C432.502116,185.699372 432.412577,185.345717 432.28656,184.987009 C432.134012,184.635037 431.95825,184.276329 431.70953,183.941199 C431.24857,183.259148 430.563762,182.681511 429.825894,182.181341 C429.073103,181.687907 428.229115,181.305622 427.356938,181.005857 C426.919192,180.852606 426.464864,180.746509 426.015511,180.63536 L425.844724,180.594942 L425.818194,180.588206 L425.770108,180.573049 L425.668962,180.542736 L425.471644,180.487162 L425.078668,180.367592 C424.816683,180.293493 424.558015,180.214342 424.299346,180.138558 L423.91466,180.022357 L423.458674,179.842161 C423.155237,179.714171 422.855115,179.58955 422.556652,179.463244 C422.259846,179.335255 421.963041,179.210633 421.684475,179.072539 C421.430781,178.917604 421.173771,178.766037 420.921735,178.614471 C420.42098,178.313021 419.918566,178.033465 419.487453,177.664653 C419.04639,177.309313 418.588746,176.997759 418.207376,176.618842 C416.59899,175.172222 415.524521,173.510041 414.765098,172.011214 C414.002358,170.497231 413.602749,169.092713 413.375585,167.932386 C413.256199,167.349696 413.204797,166.820896 413.146763,166.372933 C413.116916,165.909812 413.097019,165.524159 413.097019,165.209237 C413.100335,164.577709 413.156712,164.240894 413.156712,164.240894 C413.156712,164.240894 413.198165,164.313309 413.286046,164.448035 C413.365636,164.58613 413.499944,164.788218 413.665758,165.037462 C414.002358,165.551104 414.476583,166.287045 415.134861,167.156027 C415.773241,168.030062 416.565827,169.050611 417.540808,170.082949 C417.812741,170.365873 418.09794,170.652166 418.391429,170.945195 C420.298278,170.613432 422.168649,170.375978 423.999225,170.20757 C422.884961,169.043875 422.059213,167.816185 421.462286,166.684486 C420.830538,165.478689 420.437561,164.368884 420.195474,163.435907 C419.955045,162.501245 419.853899,161.7552 419.810788,161.241557 C419.779284,160.724547 419.79089,160.451726 419.79089,160.451726 C419.79089,160.451726 419.971627,160.648763 420.311543,161.020944 C420.643169,161.393124 421.132318,161.918555 421.752458,162.546715 C422.997714,163.801351 424.755332,165.507318 426.990492,166.967411 C428.106413,167.698299 429.343378,168.363509 430.717968,168.833366 C431.39946,169.072504 432.114114,169.267857 432.860273,169.416055 C433.228377,169.500259 433.613064,169.547413 433.999408,169.59962 C434.440471,169.64509 434.886508,169.688875 435.339177,169.734346 C435.463537,169.747818 435.587897,169.764659 435.713915,169.779816 C449.015435,169.771395 461.25741,169.234175 465.673011,163.398857 C467.841845,160.530878 468.146941,156.285326 466.601564,150.412958" id="Rabbit" sketch:type="MSShapeGroup"></path>
        </g>
    </g>
</svg>